<svg xmlns="http://www.w3.org/2000/svg" viewBox="0 0 512 512">
  <rect width="512" height="512" rx="96" fill="#14532d"/>
  <circle cx="256" cy="238" r="145" fill="#f59e0b"/>
  <circle cx="161" cy="122" r="56" fill="#f59e0b"/>
  <circle cx="351" cy="122" r="56" fill="#f59e0b"/>
  <circle cx="161" cy="122" r="27" fill="#1f2937"/>
  <circle cx="351" cy="122" r="27" fill="#1f2937"/>
  <circle cx="207" cy="223" r="18" fill="#111827"/>
  <circle cx="305" cy="223" r="18" fill="#111827"/>
  <path d="M238 274h36l-18 25z" fill="#111827"/>
  <path d="M208 321c24 21 72 21 96 0" fill="none" stroke="#111827" stroke-width="18" stroke-linecap="round"/>
  <g fill="#111827">
    <circle cx="198" cy="160" r="13"/>
    <circle cx="250" cy="139" r="11"/>
    <circle cx="314" cy="160" r="13"/>
    <circle cx="166" cy="248" r="12"/>
    <circle cx="346" cy="248" r="12"/>
    <circle cx="218" cy="292" r="9"/>
    <circle cx="294" cy="292" r="9"/>
  </g>
  <path d="M130 372c53 38 199 38 252 0" fill="none" stroke="#fef3c7" stroke-width="28" stroke-linecap="round"/>
</svg>
