<svg xmlns="http://www.w3.org/2000/svg" viewBox="0 0 512 512" role="img" aria-label="Logo Vô Địch">
  <defs>
    <linearGradient id="bg" x1="70" x2="440" y1="60" y2="450" gradientUnits="userSpaceOnUse">
      <stop offset="0" stop-color="#19a65a"/>
      <stop offset=".55" stop-color="#0d6efd"/>
      <stop offset="1" stop-color="#0a58ca"/>
    </linearGradient>
    <linearGradient id="gold" x1="150" x2="360" y1="120" y2="340" gradientUnits="userSpaceOnUse">
      <stop offset="0" stop-color="#fff2a6"/>
      <stop offset=".5" stop-color="#ffc107"/>
      <stop offset="1" stop-color="#d58b00"/>
    </linearGradient>
  </defs>
  <rect width="512" height="512" rx="108" fill="#f8fbff"/>
  <circle cx="256" cy="244" r="196" fill="#fff" stroke="url(#bg)" stroke-width="18"/>
  <path fill="url(#gold)" d="M181 142h150v56h45c0 65-32 107-88 118v39h47v35H177v-35h47v-39c-56-11-88-53-88-118h45v-56Zm0 92c-13-11-20-28-22-51h22v51Zm150 0v-51h22c-2 23-9 40-22 51Z"/>
  <path fill="#0d6efd" d="M190 210h132v36H190z"/>
  <text x="256" y="242" text-anchor="middle" font-family="Times New Roman, Times, serif" font-size="66" font-weight="800" fill="#fff">VĐ</text>
  <path fill="none" stroke="#198754" stroke-width="16" stroke-linecap="round" d="M158 418c58 34 138 34 196 0"/>
  <text x="256" y="472" text-anchor="middle" font-family="Times New Roman, Times, serif" font-size="34" font-weight="800" fill="#0d6efd">VÔ ĐỊCH</text>
</svg>
