<svg xmlns="http://www.w3.org/2000/svg" viewBox="0 0 512 512">
  <defs>
    <linearGradient id="ring" x1="70" x2="430" y1="62" y2="448" gradientUnits="userSpaceOnUse">
      <stop offset="0" stop-color="#198754"/>
      <stop offset="1" stop-color="#0d6efd"/>
    </linearGradient>
    <linearGradient id="cup" x1="155" x2="360" y1="245" y2="450" gradientUnits="userSpaceOnUse">
      <stop offset="0" stop-color="#fff2a6"/>
      <stop offset=".5" stop-color="#ffc107"/>
      <stop offset="1" stop-color="#c98300"/>
    </linearGradient>
    <radialGradient id="fur" cx="45%" cy="35%" r="68%">
      <stop offset="0" stop-color="#ffd777"/>
      <stop offset=".62" stop-color="#e5a63c"/>
      <stop offset="1" stop-color="#c57b19"/>
    </radialGradient>
  </defs>
  <rect width="512" height="512" rx="108" fill="#f8fbff"/>
  <circle cx="256" cy="244" r="196" fill="#fff" stroke="url(#ring)" stroke-width="18"/>
  <path fill="url(#cup)" d="M176 268h160v54c0 48-35 87-80 87s-80-39-80-87v-54Z"/>
  <path fill="none" stroke="#d58b00" stroke-width="18" stroke-linecap="round" d="M176 288h-39c3 45 26 73 66 79M336 288h39c-3 45-26 73-66 79"/>
  <path fill="#d58b00" d="M224 405h64v31h48v31H176v-31h48v-31Z"/>
  <path fill="#fff7cc" opacity=".72" d="M198 286h116v33c0 32-25 59-58 59s-58-27-58-59v-33Z"/>
  <path fill="#d08a24" d="M168 173l-31-45c-7-10 0-24 12-25l55-3c13-1 21 13 15 24l-25 48c-8-2-17-2-26 1Z"/>
  <path fill="#d08a24" d="M344 173l31-45c7-10 0-24-12-25l-55-3c-13-1-21 13-15 24l25 48c8-2 17-2 26 1Z"/>
  <path fill="#f3c45f" d="M178 157l-18-27 32-2-14 29ZM334 157l18-27-32-2 14 29Z"/>
  <path fill="url(#fur)" d="M136 219c0-66 54-111 120-111s120 45 120 111c0 72-50 128-120 128s-120-56-120-128Z"/>
  <path fill="#ffe6a3" d="M199 261c19 9 35 14 57 14s38-5 57-14c-4 47-25 72-57 72s-53-25-57-72Z"/>
  <path fill="#f8fbff" d="M177 215c27-17 54-18 80-3-17 20-38 30-63 30-11 0-17-9-17-27ZM335 215c-27-17-54-18-80-3 17 20 38 30 63 30 11 0 17-9 17-27Z"/>
  <path fill="#198754" d="M204 217c14-5 28-4 41 3-9 8-19 12-31 11-7 0-10-5-10-14ZM308 217c-14-5-28-4-41 3 9 8 19 12 31 11 7 0 10-5 10-14Z"/>
  <path fill="#111827" d="M242 265h28l-14 19Z"/>
  <path fill="none" stroke="#7a3f11" stroke-width="8" stroke-linecap="round" d="M219 300c12 10 25 15 37 15s25-5 37-15"/>
  <path fill="none" stroke="#7a3f11" stroke-width="5" stroke-linecap="round" d="M214 282h-51M217 294h-56M298 282h51M295 294h56"/>
  <g fill="#1f2937">
    <circle cx="208" cy="151" r="8"/>
    <circle cx="243" cy="139" r="7"/>
    <circle cx="269" cy="139" r="7"/>
    <circle cx="304" cy="151" r="8"/>
    <circle cx="176" cy="185" r="9"/>
    <circle cx="226" cy="183" r="7"/>
    <circle cx="286" cy="183" r="7"/>
    <circle cx="336" cy="185" r="9"/>
    <circle cx="162" cy="230" r="7"/>
    <circle cx="219" cy="244" r="6"/>
    <circle cx="293" cy="244" r="6"/>
    <circle cx="350" cy="230" r="7"/>
    <circle cx="230" cy="322" r="6"/>
    <circle cx="282" cy="322" r="6"/>
  </g>
</svg>
